<svg xmlns="http://www.w3.org/2000/svg" xmlns:xlink="http://www.w3.org/1999/xlink" viewBox="0 0 22 22">
  <path d="M 9.663 8.103 C 9.941 8.043 10.159 7.828 10.223 7.55 L 11.181 3.361 C 11.355 2.601 12.437 2.601 12.611 3.361 L 13.57 7.55 C 13.633 7.828 13.852 8.043 14.13 8.103 L 18.351 9.015 C 19.123 9.181 19.123 10.282 18.351 10.448 L 14.13 11.359 C 13.852 11.419 13.633 11.635 13.57 11.913 L 12.611 16.102 C 12.437 16.862 11.355 16.862 11.181 16.102 L 10.223 11.913 C 10.159 11.635 9.941 11.419 9.663 11.359 L 5.441 10.448 C 4.67 10.282 4.67 9.181 5.441 9.015 Z" fill="#00a896" />
  <path d="M 4.936 15.166 C 5.214 15.106 5.433 14.89 5.496 14.613 L 5.756 13.478 C 5.844 13.092 6.395 13.092 6.483 13.478 L 6.742 14.613 C 6.806 14.89 7.024 15.106 7.303 15.166 L 8.483 15.421 C 8.863 15.503 8.863 16.045 8.483 16.127 L 7.303 16.381 C 7.024 16.442 6.806 16.657 6.742 16.935 L 6.483 18.069 C 6.395 18.455 5.844 18.455 5.756 18.069 L 5.496 16.935 C 5.433 16.657 5.214 16.442 4.936 16.381 L 3.756 16.127 C 3.376 16.045 3.376 15.503 3.756 15.421 Z" fill="#00a896" />
</svg>
